<svg width="290" height="28" viewBox="0 0 290 28" fill="none" xmlns="http://www.w3.org/2000/svg">
<path d="M289.837 7.0136C290.089 7.4051 289.838 7.40585 289.588 7.60271C289.338 7.79957 288.837 7.99718 288.336 8.19479C288.337 8.58703 287.586 8.78538 287.337 9.37448C287.587 9.37374 287.838 9.17688 287.838 9.17688C287.837 8.98076 288.087 8.7839 288.338 8.78315C288.589 8.78241 288.59 9.17465 288.339 9.17539C288.34 9.56764 288.089 9.56837 288.341 9.76375C288.091 9.96062 288.091 10.1567 288.592 9.95913L288.593 10.1553C288.593 10.3514 288.593 10.3514 288.343 10.5482C287.842 10.7458 287.843 10.942 288.346 11.5288C288.597 11.7242 288.347 11.9211 287.596 12.1194C288.098 12.5102 287.85 13.2954 288.102 13.883C288.102 13.883 287.6 13.6884 287.601 14.0806C287.853 14.276 287.351 14.2775 287.603 14.669C287.604 15.0612 287.853 14.4721 288.356 14.8629C288.356 14.8629 288.106 15.0598 287.855 15.0605C287.856 15.4527 287.856 15.4527 288.107 15.452C288.61 15.8428 288.861 16.2343 288.362 16.8241C287.865 18.3946 286.362 18.7913 284.858 18.9918C283.855 18.9948 283.354 19.1924 282.603 19.3908C281.6 19.3937 280.847 19.396 280.096 19.5943L279.594 19.5958C279.345 19.9888 278.843 19.9903 278.843 19.7942C279.092 19.4012 278.842 19.598 278.341 19.5995L274.329 19.6114C272.575 19.8127 270.819 19.6218 269.063 19.2348C268.061 19.4339 267.058 19.4368 266.054 19.2437C264.8 19.0513 263.045 19.2526 261.791 18.8641C261.289 18.6694 260.287 19.0647 259.785 18.87C258.028 18.2869 256.525 18.6836 255.02 18.4919C253.515 18.3002 252.011 18.3047 250.506 18.113C250.005 18.3106 249.252 18.1167 248.5 18.119L245.993 18.1264C244.989 17.9333 242.983 17.7431 241.729 17.7468C241.228 17.9444 240.977 17.749 240.725 17.1614C240.225 17.7512 239.723 17.7527 239.222 17.9503C238.72 17.7557 236.213 17.567 235.46 17.5692C235.209 17.3739 235.209 17.3739 234.959 17.5707C234.458 17.7683 233.705 17.5744 233.705 17.3783C232.952 17.1844 232.451 17.382 231.95 17.3835C230.947 17.3865 230.195 17.3887 229.191 17.1956C228.69 17.1971 227.687 17.2 227.186 17.3976C226.182 17.2045 225.179 17.0113 224.177 17.2104C223.925 17.0151 224.175 16.6221 223.675 17.0158C223.675 17.0158 223.424 17.0165 222.923 17.2142C221.668 16.8256 220.415 17.0255 219.161 16.8331C218.158 16.836 217.155 16.839 216.152 16.842C214.899 16.8457 213.644 16.4572 212.391 16.8531C211.891 17.0507 211.639 16.6592 211.388 16.66C210.886 16.4653 210.385 16.6629 210.134 16.6637C209.633 16.6652 209.633 16.6652 209.383 16.862C208.881 16.8635 208.379 16.6689 208.128 16.4735C207.628 16.8672 207.376 16.6719 207.126 16.6726L205.872 16.6763C205.12 16.6785 204.367 16.4846 203.364 16.4876C203.365 16.6837 202.613 16.686 202.612 16.4898C202.11 16.2952 201.609 16.4928 200.857 16.495C199.855 16.6941 199.101 16.3041 197.848 16.504C197.096 16.5062 196.093 16.3131 195.34 16.3153C194.337 16.1221 193.585 16.3205 192.834 16.5188C192.833 16.3227 192.583 16.5196 192.332 16.3242C192.08 15.9327 191.579 16.1303 191.078 16.3279C191.078 16.3279 190.828 16.5248 190.576 16.1333C190.576 16.1333 190.325 15.9379 190.075 16.1348C189.574 16.3324 189.072 16.1377 188.821 16.1385C187.317 16.1429 186.063 16.1466 184.559 16.3472C184.557 15.7589 183.806 16.1533 183.306 16.3509C182.301 15.7656 181.55 16.16 180.547 16.163C180.046 16.3606 179.545 16.3621 179.042 15.9713C179.041 15.5791 178.791 15.776 178.791 15.776C177.79 16.3673 177.037 16.3695 175.783 16.1771C175.031 16.1793 174.278 15.9854 173.277 16.3807C172.776 16.5783 172.023 16.3844 171.521 16.1897C171.27 15.9944 171.018 15.799 170.518 16.1927C170.018 16.5864 169.515 16.1957 168.763 16.1979C168.512 16.0025 168.261 16.0033 168.01 16.004C167.761 16.397 167.259 16.2024 167.008 16.2031C166.507 16.4007 166.757 16.0077 166.506 16.0085C165.754 16.0107 165.504 16.4037 165.002 16.2091C164.751 16.2098 164.501 16.4067 164.25 16.2113C163.246 16.0181 162.495 16.4126 161.491 16.0233C161.241 16.0241 160.74 16.2217 160.488 16.0263C160.488 16.0263 160.237 15.8309 160.238 16.0271C159.988 16.42 159.486 16.2254 159.235 16.2261C158.985 16.423 158.734 16.2276 158.483 16.2284C158.232 16.2291 158.232 16.2291 157.982 16.426C156.729 16.6258 155.726 16.4327 154.472 16.4364C153.469 16.4394 152.467 16.6384 151.464 16.6414C150.712 16.6436 149.96 16.6459 149.207 16.452C147.952 16.0635 147.701 15.8681 146.7 16.4594C146.45 16.6563 145.948 16.6578 145.697 16.6585C144.192 16.2707 142.688 16.4713 141.435 16.475C140.182 16.871 139.178 16.4817 138.176 16.6808C138.176 16.8769 137.925 16.6815 137.674 16.6823C137.423 16.4869 137.172 16.4877 136.923 16.8806C136.923 16.8806 136.421 16.686 136.17 16.6867L134.916 16.6905C134.666 16.8873 134.415 16.8881 134.415 16.8881C134.164 16.6927 134.164 16.6927 133.913 16.6934C133.161 16.6957 132.158 16.5025 131.155 16.7016L130.905 16.7023C130.152 16.5085 129.4 16.7068 128.898 16.5122L128.146 16.5144C127.394 16.7128 126.643 16.9111 125.64 16.9141C124.887 16.7202 124.385 16.5255 123.884 16.7231L123.132 16.7254C122.882 16.9222 122.381 16.9237 122.129 16.7284C121.878 16.533 121.879 16.7291 121.628 16.7298C121.127 16.9274 120.626 17.1251 120.124 16.9304L118.369 16.9356C117.616 16.7417 116.865 16.9401 116.363 16.7454L116.112 16.7462C115.11 17.1414 114.106 16.7521 113.354 16.9505C113.104 16.9512 112.852 16.7558 112.853 16.952C112.603 17.345 111.851 17.3472 111.349 17.1525C110.598 17.3509 109.845 17.157 108.843 17.3561C108.592 17.553 108.09 17.3583 108.091 17.5544C107.338 17.3606 106.586 17.3628 106.085 17.5604C105.834 17.5611 105.584 17.5619 105.583 17.3658C104.832 17.5641 104.58 17.3687 104.079 17.5663C103.328 17.7647 102.826 17.57 102.074 17.5723L100.569 17.5767C99.8165 17.3828 99.3156 17.5805 98.5629 17.3866L98.5634 17.5827C98.0631 17.9764 97.311 17.9786 96.5576 17.5886L96.3069 17.5894C95.3046 17.7885 94.3005 17.3992 93.2982 17.5983C93.0481 17.7951 93.0481 17.7951 92.7973 17.7959C92.5478 18.1889 91.7956 18.1911 91.0428 17.9972C90.7921 17.998 90.2907 17.9994 89.7886 17.8048C89.5373 17.6094 89.2872 17.8063 89.2872 17.8063C88.5362 18.2008 88.0341 18.0061 87.282 18.0084C86.7799 17.8137 86.5292 17.8145 86.2785 17.8152C85.5269 18.0136 85.0249 17.8189 84.524 18.0165L84.2727 17.8211C83.7707 17.6265 83.7707 17.6265 83.7712 17.8226C83.5211 18.0195 83.271 18.2164 83.0202 18.2171C82.7695 18.2179 82.2686 18.4155 82.0173 18.2201C81.7654 17.8286 81.7654 17.8286 81.5153 18.0254C80.7649 18.616 80.2634 18.6175 79.5106 18.4236L77.5049 18.4296C77.004 18.6272 76.5025 18.6287 76.0005 18.434C75.4985 18.2394 75.2477 18.2401 74.9982 18.6331C74.748 18.83 74.7486 19.0261 74.4979 19.0269C73.9959 18.8322 73.2448 19.2267 72.9924 18.6391C72.7416 18.6398 72.7416 18.6398 72.4903 18.4444C71.9901 18.8382 71.4892 19.0358 70.9878 19.0373C69.986 19.4325 69.2344 19.6308 68.2298 19.0454L67.979 19.0462C67.7306 19.8314 66.9773 19.4414 66.7266 19.4421C65.9744 19.4444 65.9744 19.4444 65.9727 18.856C65.9727 18.856 65.7225 19.0529 65.7231 19.249C65.4724 19.2497 65.2222 19.4466 64.9709 19.2512C63.9675 19.0581 63.217 19.6487 62.4643 19.4548C61.9622 19.2601 61.462 19.6539 61.2118 19.8507C60.9611 19.8515 60.4602 20.0491 60.2095 20.0498C59.9582 19.8544 59.7075 19.8552 59.4573 20.052C59.2066 20.0528 59.2072 20.2489 58.9559 20.0535C58.7046 19.8581 59.2054 19.6605 58.9541 19.4652C58.202 19.4674 57.1996 19.6665 56.1967 19.6695C55.4463 20.2601 54.9454 20.4577 53.9431 20.6568C53.1909 20.659 53.1909 20.659 52.9385 20.0714C52.6877 20.0721 52.6883 20.2682 52.4382 20.4651C52.1875 20.4658 51.9373 20.6627 51.4353 20.4681C50.9338 20.4695 51.1857 20.861 50.935 20.8618C50.6837 20.6664 50.6831 20.4703 50.4324 20.471C50.1822 20.6679 49.9315 20.6686 49.4301 20.6701C49.4301 20.6701 49.1787 20.4747 48.928 20.4755C48.928 20.4755 48.4266 20.477 48.6779 20.6724C48.1788 21.4583 47.1753 21.2652 46.4231 21.2674C45.9211 21.0728 45.4208 21.4665 44.9193 21.468C44.4179 21.4695 43.6657 21.4717 43.4156 21.6686C43.1654 21.8654 42.6646 22.063 42.9141 21.67C42.6628 21.4747 42.4121 21.4754 42.4121 21.4754C42.1619 21.6723 41.6611 21.8699 41.4109 22.0668C41.1596 21.8714 40.9095 22.0682 40.6587 22.069C40.1567 21.8743 39.4051 22.0727 38.9031 21.8781C38.6524 21.8788 38.4022 22.0757 38.1515 22.0764C38.1521 22.2725 37.9019 22.4694 37.6506 22.274C37.6501 22.0779 37.3988 21.8825 37.6495 21.8818C37.8996 21.6849 37.8996 21.6849 37.6483 21.4895C37.1474 21.6871 37.148 21.8833 36.8973 21.884C36.6477 22.277 36.3976 22.4738 35.8955 22.2792C35.1422 21.8892 34.8915 21.8899 34.1411 22.4805C33.6408 22.8743 32.6379 22.8772 31.6344 22.6841C31.3837 22.6848 30.8822 22.6863 30.8828 22.8824C30.6327 23.0793 29.8805 23.0815 29.3796 23.2791C29.1295 23.476 29.1289 23.2799 28.628 23.4775C28.3779 23.6744 28.3779 23.6744 28.1266 23.479C27.8758 23.4797 27.6245 23.2843 27.3738 23.2851C27.1225 23.0897 26.8718 23.0904 26.3715 23.4842C26.3721 23.6803 26.1213 23.681 25.87 23.4857C25.368 23.291 24.3651 23.294 23.8648 23.6877C22.8619 23.6907 22.6135 24.4759 21.8614 24.4782C21.1086 24.2843 20.6089 24.8741 19.8573 25.0725C19.6066 25.0732 19.357 25.4662 19.1074 25.8592C18.8579 26.2522 18.1063 26.4505 17.6066 27.0404C17.6071 27.2365 17.1051 27.0418 17.1051 27.0418C16.8538 26.8465 14.3454 26.4617 14.0947 26.4624C13.3431 26.6607 12.3402 26.6637 11.588 26.6659L10.3344 26.6697C9.83354 26.8673 9.08136 26.8695 9.08078 26.6734C8.57756 26.0865 8.32743 26.2834 7.82599 26.2848C7.32452 26.2863 6.82365 26.4839 6.57236 26.2886C6.07089 26.2901 6.07146 26.4862 5.82075 26.4869C5.06974 26.8814 4.5683 26.8829 3.81554 26.689C3.06336 26.6912 2.81147 26.2997 3.3112 25.7099C3.3112 25.7099 3.56133 25.513 3.56074 25.3169C3.31062 25.5137 2.80856 25.3191 2.55669 24.9276C2.30479 24.5361 2.80565 24.3385 2.80507 24.1424L2.80448 23.9463C2.05175 23.7524 2.05176 23.7524 2.55204 23.3586C2.55087 22.9664 2.80158 22.9657 2.55029 22.7703C3.04883 21.7882 3.04882 21.7882 3.0465 21.0037C3.29607 20.6107 3.79695 20.4131 3.54505 20.0216C3.29376 19.8262 3.54446 19.8255 3.79462 19.6286C3.79462 19.6286 4.04593 19.824 4.29606 19.6271C4.54621 19.4303 5.29666 18.8397 5.04534 18.6443C4.7946 18.645 4.5433 18.4497 4.54214 18.0574C4.54156 17.8613 4.04013 17.8628 3.78997 18.0597C3.03721 17.8658 3.03604 17.4735 2.78356 16.8859C2.53344 17.0828 2.03257 17.2804 1.78183 17.2811C1.53109 17.2819 1.5311 17.2819 1.52935 16.6935C0.776042 16.3035 0.776053 16.3035 0.773729 15.519C1.02269 14.9299 1.0221 14.7338 1.52296 14.5362C1.27167 14.3408 0.770242 14.3423 0.76966 14.1462C0.518342 13.9508 0.768498 13.7539 0.767917 13.5578C1.01746 13.1648 0.766754 13.1655 0.765592 12.7733C1.0163 12.7726 2.26934 12.5727 2.26876 12.3766C2.26702 11.7882 3.01804 11.3938 3.52006 11.5884C4.02153 11.5869 4.27224 11.5862 4.77253 11.1925C5.27284 10.7987 5.27223 10.6026 6.02554 10.9926C6.27628 10.9919 6.52702 10.9911 7.02788 10.7935C7.52933 10.792 8.03018 10.5944 8.78178 10.3961C9.53454 10.59 10.0343 10.0001 10.7859 9.80177C11.2867 9.60416 11.2867 9.60417 11.7893 9.99492C12.292 10.3857 12.0412 10.3864 12.2908 9.99344C12.5409 9.79657 13.2937 9.99046 13.7934 9.40061C14.2966 9.98749 14.7969 9.59376 15.2977 9.39615C16.0493 9.1978 16.8021 9.3917 17.8038 8.99648C18.0546 8.99574 18.3047 8.79888 18.556 8.99426C18.556 8.99426 19.0575 8.99277 19.0569 8.79665C19.5577 8.59904 20.0598 8.79368 20.3105 8.79293C20.5618 8.98831 20.8119 8.79145 20.8119 8.79145C21.8131 8.20012 24.3198 7.99656 25.5734 7.99285C25.8235 7.79598 26.5757 7.79375 26.8265 7.79301C27.0772 7.79227 27.578 7.59466 27.5792 7.9869C27.5804 8.37914 27.8305 8.18228 28.0812 8.18154C28.0795 7.59317 28.8317 7.59094 29.3325 7.39334C30.585 6.99738 32.0905 7.38517 33.5931 6.79234C34.5966 6.98549 35.3488 6.98326 36.1004 6.78491C36.3505 6.58805 36.8519 6.58657 37.1033 6.78194C37.3546 6.97732 37.3552 7.17344 37.354 6.7812C37.8537 6.19135 38.3557 6.38599 38.8578 6.58062C39.6099 6.57839 40.3609 6.18392 40.8624 6.18244C41.614 5.98409 42.3662 5.98185 43.1183 5.97963C43.6192 5.78202 44.1207 5.78053 44.6215 5.58293C45.123 5.58144 45.8746 5.38309 46.8781 5.57624C47.1294 5.77162 47.6308 5.77013 47.8804 5.37715C47.8798 5.18103 48.1305 5.18028 48.632 5.17879C48.8839 5.57029 49.1334 5.17731 49.6354 5.37195C50.1363 5.17434 50.8879 4.97599 51.3894 4.97451C51.8908 4.97302 52.3929 5.16765 52.3923 4.97153C52.8931 4.77393 53.3952 4.96856 53.6459 4.96782C54.1473 4.96633 54.6482 4.76872 55.4004 4.76649C56.152 4.56814 56.6534 4.56666 57.907 4.56294C58.4091 4.75758 59.1613 4.75535 59.9128 4.557C60.4143 4.55551 61.1659 4.35716 61.9181 4.35493C62.6697 4.15658 63.4218 4.15435 63.9239 4.34899C64.4259 4.54363 64.4253 4.34751 64.6755 4.15064C65.4271 3.95229 66.1787 3.75394 66.6813 4.1447L67.1815 3.75097C67.4323 3.75022 67.9331 3.55262 68.185 3.94411C68.4363 4.13949 68.6871 4.13875 68.6865 3.94263C69.1873 3.74502 69.4381 3.74428 69.9395 3.74279L71.1932 3.73908C71.1937 3.9352 71.6952 3.93371 71.6946 3.73759C71.6934 3.34535 71.9447 3.54073 72.4462 3.53925C73.1984 3.53702 74.452 3.5333 75.2036 3.33495C75.4537 3.13809 75.9552 3.1366 75.9552 3.1366C76.459 3.9196 76.9592 3.52587 77.7114 3.52364L78.2134 3.71827C78.7131 3.12843 78.9639 3.12769 79.2157 3.51919L79.4665 3.51844C79.7155 2.92934 80.2181 3.32009 80.7189 3.12248C80.9691 2.92562 81.4705 2.92413 81.972 2.92265C82.2233 3.11803 82.474 3.11728 83.2256 2.91893C83.7271 2.91745 83.9778 2.9167 84.7306 3.1106C85.2326 3.30523 85.7334 3.10762 86.485 2.90927C86.4844 2.71315 86.7346 2.51629 86.9865 2.90779C86.9865 2.90779 87.2378 3.10317 87.4879 2.9063C88.4891 2.31497 89.4937 2.90036 90.9975 2.69978C92.001 2.89293 93.5042 2.49623 94.7578 2.49251L95.51 2.49028C95.7613 2.68566 96.2616 2.29193 96.2622 2.48805C96.514 2.87955 96.7636 2.48657 97.0137 2.2897L97.5152 2.28822C97.7677 2.87584 98.0178 2.67897 98.5187 2.48137L99.0201 2.47988C99.2714 2.67526 99.7723 2.47765 100.023 2.47691C100.775 2.27856 101.275 2.08095 101.777 2.07947C102.027 1.8826 102.529 2.07724 102.53 2.27336C103.032 2.46799 103.282 2.46725 103.533 2.27039C104.034 2.2689 104.535 2.07129 104.786 2.26667L105.288 2.26518C105.538 2.06832 105.789 2.06758 106.039 2.06683C106.793 2.45685 107.544 2.2585 108.548 2.45165C109.048 2.05792 109.801 2.44793 110.302 2.0542C111.555 1.85437 112.809 2.2429 113.812 2.0438C114.062 1.84694 114.062 2.04306 114.564 2.04157C114.564 2.23769 115.066 2.23621 115.065 2.04009C115.065 1.84397 115.566 1.84248 115.566 1.64636C116.319 2.03637 117.072 2.23026 117.571 1.64042C117.571 1.64042 117.572 1.83654 118.073 1.83505C118.073 1.63893 118.576 2.02968 118.826 1.83282C119.327 1.83134 119.577 1.63447 120.079 1.82911C120.83 1.43464 121.834 1.82391 122.586 1.62556C123.339 2.01557 123.589 1.62258 124.341 1.62036C125.093 1.61813 127.349 1.2192 127.849 1.02159C128.101 1.21697 128.353 1.60847 128.603 1.4116C128.853 1.41086 129.105 1.60624 129.355 1.40938C130.105 0.818783 130.608 1.20954 131.611 1.40269C131.612 1.59881 132.113 1.59732 132.364 1.40046C133.115 1.00599 133.866 0.807634 134.62 1.19765L135.121 1.19616C135.873 0.997811 136.625 1.1917 137.628 1.18873C138.13 1.38337 138.13 1.18725 138.882 1.18502C138.881 0.988895 139.634 0.986667 139.884 0.985924C140.386 1.18056 140.637 1.17982 140.887 0.982952C141.639 0.784602 141.891 1.1761 142.392 1.17461C142.892 0.780886 143.145 1.36851 143.394 0.975522C144.148 1.36554 144.648 0.971807 145.4 0.969578C145.902 1.16421 146.404 1.16273 147.155 0.964377C147.407 1.15976 147.658 1.35513 147.657 1.15901C148.158 0.961404 148.66 0.959918 149.162 1.15455C149.664 1.34919 150.165 1.15158 150.916 0.953232C151.417 0.755625 151.918 0.558019 152.671 0.751911C152.922 0.947289 153.423 0.945803 153.674 0.748939C153.924 0.748196 154.176 0.943573 154.176 0.943573C154.678 1.13821 154.928 0.941344 155.429 0.939858C155.93 0.742251 156.682 0.740023 157.184 0.738537C157.434 0.737794 157.434 0.737792 157.686 1.12929C157.936 0.932427 158.187 0.735565 158.437 0.734822C158.939 0.929457 159.44 0.731849 159.942 0.926484C160.695 1.12038 160.945 0.923512 161.447 0.922026C162.198 0.527555 163.201 0.720704 163.954 0.914596L164.455 0.91311C164.454 0.520867 164.956 0.715504 165.708 0.713275L169.469 0.70213C169.971 0.896765 170.473 0.895278 170.723 0.894535C171.727 1.08768 172.728 0.496347 173.983 1.081L174.234 0.884133C174.734 0.686526 175.487 0.880421 175.99 1.27118C176.742 1.26895 177.995 1.06911 178.495 0.675382C179.246 0.084792 179.499 0.86853 179.499 0.86853C180.25 0.67018 180.501 0.473315 180.752 0.864815C181.004 1.25631 181.254 1.05945 181.254 1.05945C182.006 0.861099 182.006 0.861101 182.256 0.664237C182.757 0.46663 183.008 0.465887 183.51 0.660522C184.012 0.855157 184.514 1.04979 184.763 0.656807C185.265 0.851442 185.766 0.653834 185.767 0.849955C186.269 1.04459 186.52 1.04385 186.77 0.846983C187.021 0.84624 187.27 0.453253 187.773 1.04013C188.273 0.450281 189.027 1.03642 189.528 0.83881C190.029 0.641203 190.53 0.639717 190.781 0.835095C191.283 1.02973 191.785 1.22436 192.286 1.02676C192.787 0.82915 193.789 0.433935 194.543 1.02007L194.543 1.2162C195.294 0.821724 196.046 0.623371 196.548 0.818006C197.05 1.01264 197.551 0.815033 198.053 1.00967C198.554 0.812061 199.056 1.0067 199.557 0.80909C199.808 1.00447 200.309 0.80686 200.811 1.0015C201.312 0.803888 202.065 0.99778 202.315 0.997037C202.817 0.995551 202.817 0.995555 202.817 1.19168C203.317 0.601826 204.07 0.991836 204.321 0.991093C204.823 0.989607 205.325 1.18425 205.826 1.18276C206.828 0.983667 207.581 0.981437 208.585 1.37071L208.835 1.36996C209.586 0.975493 210.59 1.36476 211.342 1.16641C212.095 1.36031 212.596 1.35882 213.599 1.35585C213.349 1.55271 213.098 1.55346 213.099 1.74957C213.6 1.55197 213.851 1.74734 214.602 1.35288C214.852 1.15601 215.604 1.15378 216.357 1.34767C217.612 1.7362 218.865 1.53637 219.617 1.33802C220.368 1.13967 221.121 1.52968 221.622 1.33207C221.873 1.33133 221.623 1.72431 221.373 1.72505C221.623 1.72431 222.126 1.91895 222.376 1.72208C222.876 1.32836 223.378 1.52299 223.629 1.71837C223.63 1.91449 224.132 2.10912 224.131 1.71688C224.131 1.71688 224.381 1.52002 224.381 1.71614C225.384 1.71317 226.135 1.3187 227.139 1.70797C227.39 1.70722 227.64 1.51036 227.641 1.9026C227.643 2.29484 227.893 2.09798 228.144 2.09723C228.394 1.90037 228.394 1.90037 228.394 2.09649C228.897 2.48725 228.896 2.29113 229.146 2.09426C229.396 1.70128 230.148 1.69905 230.651 2.0898C230.901 2.08906 231.655 2.47908 231.904 1.88997L232.154 1.69311C233.158 2.08238 233.91 1.88402 234.913 2.07717L235.415 2.07569C235.915 1.68196 236.668 2.07197 237.67 1.87288C237.921 1.87214 238.172 1.87139 238.173 2.06751C238.174 2.45976 238.424 2.45902 238.675 2.45827C239.175 2.06454 239.677 2.06306 239.928 2.06231C240.178 2.06157 240.428 1.86471 240.43 2.25695C240.681 2.45233 240.931 2.25546 241.182 2.45084C241.683 2.25324 241.933 1.86025 242.686 2.25026C242.687 2.44639 243.188 2.4449 243.438 2.24804C243.939 2.05043 244.191 2.44193 244.692 2.24432C245.194 2.43896 245.946 2.43673 246.448 2.43524C247.2 2.62913 247.953 2.82302 248.705 2.82079C249.457 2.62244 250.461 3.01171 251.213 2.81336C251.463 2.6165 251.463 2.6165 251.463 2.81262C251.966 3.3995 252.467 3.00577 253.218 2.80742L253.468 2.61056C253.468 2.61056 253.97 2.60907 253.72 2.80593C253.471 3.39504 253.72 3.00205 253.971 2.80519C254.221 2.80445 254.473 2.99983 254.473 2.99983C256.228 3.19075 257.733 3.38241 259.488 3.3772C259.739 3.37646 260.241 3.5711 260.993 3.56887L262.247 3.56516C262.497 3.36829 262.747 3.17143 262.999 3.56293C263.251 3.95443 264.002 3.75608 264.504 3.75459C264.755 3.75385 265.506 3.35937 265.257 3.94848C265.508 4.14386 265.758 3.94699 265.758 3.94699C266.008 3.55401 267.011 3.74716 267.764 3.94105C268.015 3.94031 268.265 3.93957 268.766 3.74196C269.268 3.93659 268.767 3.93808 268.767 4.1342C269.018 3.93733 269.268 3.93659 269.769 3.73899C270.02 3.73824 270.27 3.54138 270.522 3.93288C270.522 4.129 271.274 3.93065 271.525 3.92991C271.775 3.92916 272.276 3.73155 272.528 4.12305C272.528 4.12305 272.779 4.12231 273.28 3.9247C273.279 3.53246 273.529 3.53172 273.781 3.7271C274.033 4.1186 274.283 4.11785 274.784 3.92025C274.784 3.92025 275.535 3.52577 275.286 4.11488C275.286 4.11488 275.538 4.31026 275.537 4.11414C276.29 4.30803 277.041 3.91356 277.793 3.91133C278.544 3.51686 279.297 3.71075 279.799 3.90539L282.053 3.31033C282.055 3.70258 281.804 3.70332 281.554 3.90019C281.804 3.70332 282.306 3.89796 283.057 3.50349C284.059 3.10827 284.56 2.91066 285.313 3.30068C285.313 3.30068 285.564 3.49605 285.814 3.29919C285.814 3.10307 285.312 3.10456 285.312 2.90844C286.063 2.71009 286.567 3.29696 287.067 3.09935C287.32 3.68698 287.571 3.88235 288.324 4.07624C289.076 4.07402 289.328 4.46551 288.578 5.05611C288.829 5.25149 288.828 5.05536 288.828 5.05536C289.58 4.85701 289.831 5.05239 289.331 5.64224C289.332 5.83837 289.583 5.83762 289.333 6.03448C289.082 6.23135 288.832 6.42821 288.33 6.23358C288.331 6.62582 287.83 6.62731 287.58 6.82417C287.58 6.82417 287.078 6.82566 287.33 7.02103C288.081 6.62656 288.834 7.01657 289.585 6.6221C289.586 6.81822 289.837 7.0136 289.837 7.0136ZM87.008 10.1643C87.7596 9.96591 88.7636 10.3552 89.2628 9.56921C88.0091 9.57293 88.0092 9.57292 87.5065 9.18217C87.5071 9.37829 87.0068 9.77202 87.008 10.1643ZM83.7474 9.78168C83.9981 9.78094 84.2483 9.58407 83.997 9.3887C83.9964 9.19258 83.7457 9.19332 83.2442 9.1948C82.9941 9.39167 82.7433 9.39241 82.9946 9.58779C83.246 9.78316 82.9964 10.1761 82.7463 10.373C83.2471 10.1754 83.7486 10.1739 83.7474 9.78168ZM184.783 7.32492C184.533 7.52179 184.032 7.52327 183.532 8.11312C184.034 8.30775 184.283 7.91477 184.534 7.91402C184.784 7.71716 184.784 7.52104 184.783 7.32492ZM186.29 8.10494C186.29 8.10494 186.54 7.90808 186.791 7.90734C186.539 7.71196 186.539 7.51584 186.288 7.32046C186.288 7.32046 185.786 7.12583 186.037 7.32121C186.037 7.51733 186.038 7.71345 186.29 8.10494ZM279.799 3.90539C279.548 3.90613 279.548 3.90613 279.298 4.10299C279.298 4.10299 279.8 4.29763 279.799 3.90539Z" fill="#FEE176"/>
</svg>
